<svg height="436pt" viewBox="0 -6 436.90667 436" width="436pt" xmlns="http://www.w3.org/2000/svg"><path d="m218.453125 396.398438c-101.792969 0-184.316406 6.117187-184.316406 13.65625 0 7.542968 82.523437 13.652343 184.316406 13.652343 101.800781 0 184.324219-6.109375 184.324219-13.652343 0-7.539063-82.523438-13.65625-184.324219-13.65625" fill="#eeeef0"/><path d="m75.09375 150.640625v197.078125c0 34.425781 27.910156 62.335938 62.335938 62.335938h20.015624c14.839844 0 26.875-12.035157 26.875-26.875v-20.914063h68.265626v20.914063c0 14.839843 12.035156 26.875 26.875 26.875h20.015624c34.425782 0 62.335938-27.910157 62.335938-62.335938v-197.078125c0-79.175781-64.183594-143.359375-143.359375-143.359375s-143.359375 64.183594-143.359375 143.359375zm0 0" fill="#fff"/><g fill="#54596e"><path d="m75.09375 150.640625h-6.828125v197.078125c.007813 38.199219 30.964844 69.15625 69.164063 69.160156h20.015624c18.613282-.003906 33.695313-15.085937 33.703126-33.699218v-14.089844h54.613281v14.089844c.003906 18.613281 15.085937 33.695312 33.699219 33.699218h20.015624c38.199219-.003906 69.160157-30.964844 69.164063-69.160156v-197.078125c-.003906-82.949219-67.238281-150.183594-150.1875-150.1875-82.949219.003906-150.183594 67.238281-150.1875 150.1875h13.65625c0-37.726563 15.269531-71.816406 39.988281-96.546875 24.726563-24.714844 58.820313-39.984375 96.542969-39.988281 37.722656.007812 71.816406 15.273437 96.542969 39.992187 24.71875 24.726563 39.988281 58.816406 39.992187 96.542969v197.078125c-.003906 15.347656-6.207031 29.183594-16.261719 39.25-10.066406 10.054688-23.902343 16.253906-39.25 16.257812h-20.019531c-11.066406-.023437-20.023437-8.980468-20.046875-20.046874v-20.914063c0-1.796875-.726562-3.554687-2-4.828125-1.265625-1.269531-3.027344-1.996094-4.824218-1.996094h-68.265626c-1.796874 0-3.558593.726563-4.828124 1.996094-1.269532 1.273438-2 3.03125-2 4.828125v20.914063c-.019532 11.066406-8.980469 20.023437-20.046876 20.046874h-20.015624c-15.351563-.003906-29.183594-6.203124-39.253907-16.257812-10.054687-10.066406-16.253906-23.902344-16.257812-39.25v-197.078125zm0 0"/><path d="m163.839844 369.09375h109.226562c3.769532 0 6.828125-3.058594 6.828125-6.828125s-3.058593-6.824219-6.828125-6.824219h-109.226562c-3.769532 0-6.828125 3.054688-6.828125 6.824219s3.058593 6.828125 6.828125 6.828125"/><path d="m150.1875 143.8125c0 7.542969-6.113281 13.652344-13.652344 13.652344-7.542968 0-13.65625-6.109375-13.65625-13.652344 0-7.539062 6.113282-13.652344 13.65625-13.652344 7.539063 0 13.652344 6.113282 13.652344 13.652344zm0 0"/><path d="m314.027344 143.8125c0 7.542969-6.113282 13.652344-13.652344 13.652344-7.542969 0-13.65625-6.109375-13.65625-13.652344 0-7.539062 6.113281-13.652344 13.65625-13.652344 7.539062 0 13.652344 6.113282 13.652344 13.652344zm0 0"/></g><path d="m334.507812 191.601562c0 7.539063-6.113281 13.652344-13.65625 13.652344-7.539062 0-13.652343-6.113281-13.652343-13.652344 0-7.542968 6.113281-13.65625 13.652343-13.65625 7.542969 0 13.65625 6.113282 13.65625 13.65625zm0 0" fill="#ffb8f2"/><path d="m129.707031 191.601562c0 7.539063-6.113281 13.652344-13.652343 13.652344-7.542969 0-13.65625-6.113281-13.65625-13.652344 0-7.542968 6.113281-13.65625 13.65625-13.65625 7.539062 0 13.652343 6.113282 13.652343 13.65625zm0 0" fill="#ffb8f2"/><path d="m348.160156 259.867188h34.132813c26.394531 0 47.785156-21.394532 47.785156-47.789063v-23.890625c0-13.195312-10.695313-23.894531-23.890625-23.894531s-23.894531 10.699219-23.894531 23.894531v17.066406h-34.132813" fill="#d8d8d8"/><path d="m348.160156 266.691406h34.132813c30.164062 0 54.609375-24.445312 54.613281-54.609375v-23.894531c-.003906-16.96875-13.75-30.714844-30.71875-30.71875-16.96875.003906-30.71875 13.75-30.722656 30.71875v10.238281h-27.304688c-3.769531 0-6.828125 3.054688-6.828125 6.828125 0 3.769532 3.058594 6.824219 6.828125 6.824219h34.132813c1.824219 0 3.535156-.707031 4.828125-1.996094 1.289062-1.289062 2-3.003906 2-4.828125v-17.066406c.015625-9.421875 7.640625-17.046875 17.066406-17.066406 9.421875.019531 17.046875 7.644531 17.066406 17.066406v23.894531c-.003906 11.332031-4.574218 21.527344-11.996094 28.960938-7.433593 7.425781-17.628906 11.992187-28.964843 12-17.066407-.003907-34.097657-.003907-34.132813 0-3.769531 0-6.828125 3.054687-6.828125 6.824219 0 3.769531 3.058594 6.824218 6.828125 6.824218zm0 0" fill="#54596e"/><path d="m88.746094 259.867188s-17.066406 0-34.132813 0c-26.394531 0-47.785156-21.394532-47.785156-47.789063v-23.890625c0-13.195312 10.695313-23.894531 23.890625-23.894531s23.894531 10.699219 23.894531 23.894531v17.066406h34.132813" fill="#d8d8d8"/><path d="m88.746094 253.039062s-17.066406 0-34.132813 0c-11.332031-.003906-21.53125-4.574218-28.964843-11.996093-7.421876-7.433594-11.992188-17.628907-11.996094-28.964844v-23.890625c.019531-9.425781 7.644531-17.050781 17.066406-17.070312 9.425781.019531 17.050781 7.644531 17.066406 17.070312v17.066406c0 1.820313.710938 3.535156 2 4.824219 1.292969 1.292969 3.003906 2 4.828125 2h34.132813c3.769531 0 6.824218-3.054687 6.824218-6.824219 0-3.769531-3.054687-6.824218-6.824218-6.824218l-27.304688-.003907v-10.238281c-.003906-16.96875-13.753906-30.71875-30.722656-30.722656-16.96875.003906-30.71484375 13.753906-30.71875 30.722656v23.890625c.00390625 30.164063 24.445312 54.609375 54.613281 54.613281h34.132813c3.769531 0 6.824218-3.054687 6.824218-6.824218 0-3.769532-3.054687-6.824219-6.824218-6.828126zm0 0" fill="#54596e"/><path d="m218.453125 273.519531c-37.703125 0-68.265625-30.5625-68.265625-68.265625v-27.308594h136.53125v27.308594c0 37.703125-30.5625 68.265625-68.265625 68.265625zm0 0" fill="#ff927d"/><path d="m218.453125 273.519531v-6.828125c-16.988281-.003906-32.304687-6.863281-43.445313-17.996094-11.128906-11.136718-17.992187-26.453124-17.996093-43.441406v-20.484375h122.882812v20.484375c-.003906 16.984375-6.867187 32.304688-17.996093 43.441406-11.140626 11.132813-26.457032 17.996094-43.445313 17.996094v13.65625c41.476563-.003906 75.089844-33.617187 75.09375-75.09375v-27.304687c0-1.800781-.730469-3.558594-2-4.828125-1.273437-1.273438-3.03125-2-4.828125-2h-136.53125c-1.796875 0-3.558594.726562-4.828125 1.996094-1.269531 1.273437-2 3.03125-2 4.828124v27.308594c.003906 41.476563 33.617187 75.085938 75.09375 75.089844zm0 0" fill="#54596e"/><path d="m177.496094 227.664062c0 14.015626 18.339844 25.375 40.960937 25.375 22.625 0 40.960938-11.359374 40.960938-25.375 0-3.515624-1.160157-6.863281-3.242188-9.910156l-14.566406-3.171875c-15.308594-3.335937-30.996094-3.335937-46.304687 0l-14.5625 3.171875c-2.089844 3.046875-3.246094 6.394532-3.246094 9.910156zm0 0" fill="#ffb8f2"/></svg>